<svg width="160" height="160" viewBox="0 0 160 160" fill="none" xmlns="http://www.w3.org/2000/svg">
  <rect width="160" height="160" rx="80" fill="#FFE1D6"/>
  <path d="M28 131C36 102 51 88 80 88C109 88 124 102 132 131C119 145 102 154 80 154C58 154 41 145 28 131Z" fill="#5A69FF"/>
  <path d="M34 72C34 39 54 17 82 17C109 17 128 39 128 73V104H34V72Z" fill="#1D2446"/>
  <path d="M44 89C35 88 30 82 30 74C30 66 35 61 43 62L44 89Z" fill="#F4B79A"/>
  <path d="M116 89C125 88 130 82 130 74C130 66 125 61 117 62L116 89Z" fill="#F4B79A"/>
  <path d="M43 65C45 43 59 28 80 28C101 28 115 43 117 65L114 80C111 101 98 116 80 116C62 116 49 101 46 80L43 65Z" fill="#FFD1BE"/>
  <path d="M47 65C69 62 82 50 91 29C105 35 113 47 117 66C102 59 89 48 82 35C76 52 62 62 47 65Z" fill="#1D2446"/>
  <path d="M66 76C66 79 64 81 61 81C58 81 56 79 56 76C56 73 58 71 61 71C64 71 66 73 66 76Z" fill="#1D2446"/>
  <path d="M104 76C104 79 102 81 99 81C96 81 94 79 94 76C94 73 96 71 99 71C102 71 104 73 104 76Z" fill="#1D2446"/>
  <path d="M69 96C76 102 84 102 91 96" stroke="#D76A76" stroke-width="5" stroke-linecap="round"/>
  <path d="M49 91C55 86 62 85 69 88" stroke="#F4A3A7" stroke-width="4" stroke-linecap="round"/>
  <path d="M91 88C98 85 105 86 111 91" stroke="#F4A3A7" stroke-width="4" stroke-linecap="round"/>
</svg>
